<svg xmlns="http://www.w3.org/2000/svg" width="32" height="32" viewBox="0 0 32 32">
  <defs>
    <style>
      .cls-1 {
        fill: #008ed6;
        fill-rule: evenodd;
      }
    </style>
  </defs>
  <path id="Settings" class="cls-1" d="M30.016,12.971L27.449,12.4a11.786,11.786,0,0,0-.763-1.841l1.389-2.314a2.3,2.3,0,0,0,0-2.828L26.66,4a2.347,2.347,0,0,0-2.895-.088L21.515,5.349a11.95,11.95,0,0,0-1.829-.768l-0.576-2.6A2.347,2.347,0,0,0,17,0H15a2.3,2.3,0,0,0-2,2L12.358,4.566a11.958,11.958,0,0,0-1.948.819L8.1,3.915A2.347,2.347,0,0,0,5.208,4L3.794,5.418a2.3,2.3,0,0,0,0,2.828l1.461,2.435a11.9,11.9,0,0,0-.7,1.72l-2.566.569A2.347,2.347,0,0,0,0,15.08v2a2.294,2.294,0,0,0,2,2l2.6,0.649a11.847,11.847,0,0,0,.658,1.593L3.794,23.76a2.3,2.3,0,0,0,0,2.828L5.209,28A2.347,2.347,0,0,0,8.1,28.09l2.312-1.473a11.864,11.864,0,0,0,1.96.823L13.016,30a2.294,2.294,0,0,0,2,2h2a2.346,2.346,0,0,0,2.109-1.984l0.577-2.6a11.844,11.844,0,0,0,1.808-.758l2.256,1.437A2.347,2.347,0,0,0,26.66,28l1.415-1.414a2.3,2.3,0,0,0,0-2.828l-1.39-2.316a12.053,12.053,0,0,0,.716-1.714L30,19.08a2.294,2.294,0,0,0,2-2v-2A2.346,2.346,0,0,0,30.016,12.971ZM30,16.939a1.308,1.308,0,0,1-.448.192l-3.708.926L25.5,19.107a10.121,10.121,0,0,1-.6,1.428l-0.5.986,1.959,3.267a1.419,1.419,0,0,1,.2.485l-1.315,1.313a1.555,1.555,0,0,1-.341-0.14l-3.292-2.1-1.023.529a9.831,9.831,0,0,1-1.5.631L18,25.86l-0.824,3.723a0.762,0.762,0,0,1-.217.417h-1.8a1.3,1.3,0,0,1-.191-0.447l-0.921-3.682-1.065-.338a9.8,9.8,0,0,1-1.629-.685l-1.028-.543L7.029,26.4a0.754,0.754,0,0,1-.409.143L5.308,25.27a1.314,1.314,0,0,1,.181-0.449l2.045-3.408-0.486-.979A9.811,9.811,0,0,1,6.5,19.109L6.157,18.057l-3.672-.918A1.413,1.413,0,0,1,2,16.939V15.08H2a2.38,2.38,0,0,1,.335-0.142L6.112,14.1,6.458,13a9.9,9.9,0,0,1,.588-1.431l0.486-.98L5.509,7.217a1.425,1.425,0,0,1-.2-0.485L6.622,5.418a1.569,1.569,0,0,1,.34.14L10.316,7.7l1.027-.542a9.97,9.97,0,0,1,1.622-.682l1.063-.339L14.94,2.485A1.42,1.42,0,0,1,15.141,2H17c-0.014.021,0.115,0.195,0.142,0.34l0.84,3.794L19.07,6.485a9.96,9.96,0,0,1,1.523.639l1.023,0.532L24.84,5.6a0.751,0.751,0,0,1,.409-0.143l1.313,1.276a1.322,1.322,0,0,1-.182.45l-1.979,3.3,0.5,0.988A9.675,9.675,0,0,1,25.54,13l0.346,1.1,3.7,0.821a0.7,0.7,0,0,1,.435.241Zm-13.987,5.07A6.009,6.009,0,1,1,22.037,16,6.023,6.023,0,0,1,16.013,22.009ZM16,12a4,4,0,1,0,4,4A4,4,0,0,0,16,12Z"/>
</svg>
